# xmcd
#
# Track frame offsets: 
#        150
#        22535
#        41960
#        75046
#        88929
#        109672
#        131358
#        156795
#        177815
#        195844
#        216036
#        249685
#        268840
#        286994
#
# Disc length: 3994 seconds
#
# Revision: 0
# Processed by: cddbd v1.5.2PL0 Copyright (c) Steve Scherf et al.
# Submitted via: ExactAudioCopy v1.3
#
DISCID=ae0f980e
DTITLE=Tommy McCoy - 25 Year Retrospect - CD1
DYEAR=2015
DGENRE=Blues
TTITLE0=The King Is Gone
TTITLE1=I Got A Reason
TTITLE2=The Change Is In
TTITLE3=No Love Without Any Green
TTITLE4=Tropical Depression
TTITLE5=Ludella
TTITLE6=Love 'n' Money
TTITLE7=They Killed That Man
TTITLE8=Blues Thing
TTITLE9=A Man Who Cried
TTITLE10=Bitter Soul To Heal
TTITLE11=Talkin' To Myself
TTITLE12=Ace In The Hole
TTITLE13=Angels Serenade
EXTD=
EXTT0=
EXTT1=
EXTT2=
EXTT3=
EXTT4=
EXTT5=
EXTT6=
EXTT7=
EXTT8=
EXTT9=
EXTT10=
EXTT11=
EXTT12=
EXTT13=
PLAYORDER=
